Genre:Action | Comedy
Language:English
IMDb:http://www.imdb.com/title/tt1386588/
Source Video:Hogz
Source Audio:Imagine
.............................................
General
Complete name : The Other Guys 2010 TS XVID FEEL-FREE
Format : AVI
Format/Info : Audio Video Interleave
File size : 1.15 GiB
Duration : 1h 41mn
Overall bit rate : 1 633 Kbps
Writing library : VirtualDub build 32817/release
..............................................
Video
ID : 0
Format : MPEG-4 Visual
Format profile : AdvancedSimple@L5
Format settings, BVOP : Yes
Format settings, QPel : No
Format settings, GMC : No warppoints
Format settings, Matrix : Custom
Codec ID : XVID
Codec ID/Hint : XviD
Duration : 1h 41mn
Bit rate : 1 494 Kbps
Width : 688 pixels
Height : 288 pixels
Display aspect ratio : 2.35:1
Frame rate : 30.000 fps
Resolution : 24 bits
Colorimetry : 4:2:0
Scan type : Progressive
Bits/(Pixel*Frame) : 0.251
Stream size : 1.06 GiB (91%)
Writing library : XviD 1.2.1 (UTC 2008-12-04)
...............................................
Audio
ID : 1
Format : MPEG Audio
Format version : Version 1
Format profile : Layer 3
Codec ID : 55
Codec ID/Hint : MP3
Duration : 1h 41mn
Bit rate mode : Constant
Bit rate : 128 Kbps
Channel(s) : 2 channels
Sampling rate : 44.1 KHz
Resolution : 16 bits
Stream size : 92.6 MiB (8%)
Alignment : Split accross interleaves
Interleave, duration : 33 ms (1.00 video frame)
Interleave, preload duration : 500 ms
................................................
Plot:
Two mismatched New York City detectives seize an opportunity to step up like the city's top cops whom they idolize -- only things don't quite go as planned
...................................................

Screenshots:
 
http://postimg.com/image/20000/19501.jpg
 
http://postimg.com/image/20000/19502.jpg

.......................................................